<svg xmlns="http://www.w3.org/2000/svg" fill="none" viewBox="0 0 47 60"><g clip-path="url(#a)"><path fill="#fff" d="m40.178 43.036-.303-1.131c-.055-.203.037-.558.232-.903.009-.015.017-.031.024-.047l.019-.034.013-.03s0-.002.002-.003c1.395-2.97 1.55-6.666.426-10.147l-.005-.015-.004-.014-4.563-13.052-.005-.012-.004-.014a4.117 4.117 0 0 0-1.99-2.236 4.041 4.041 0 0 0-5.062 1.15 4.178 4.178 0 0 0-2.934-.868 4.11 4.11 0 0 0-2.86 1.534 4.165 4.165 0 0 0-1.091-.646 4.087 4.087 0 0 0-4.164.656l-2.263-8.443V8.78c-.382-1.432-1.49-2.562-2.894-2.949a4.023 4.023 0 0 0-3.934 1.054C7.796 7.922 7.4 9.455 7.786 10.886l4.325 16.142c-.54.069-1.076.176-1.615.325l-.003.001-.012.003a4.803 4.803 0 0 0-3.043 2.572 4.967 4.967 0 0 0-.078 4.034 23.945 23.945 0 0 0 4.934 7.509 23.563 23.563 0 0 0 7.275 5.113c.221.112.404.353.479.63l.303 1.132a2.244 2.244 0 0 0-.468 2.08l1.303 4.864c.355 1.325 1.705 2.119 3.009 1.77l17.05-4.57c1.284-.343 2.04-1.701 1.684-3.026L41.626 44.6a2.246 2.246 0 0 0-1.446-1.567l-.002.002Z"/><path fill="#008088" d="m40.178 43.036-.303-1.131c-.055-.203.037-.558.232-.903.009-.015.017-.031.024-.047l.019-.034.013-.03s0-.002.002-.003c1.395-2.97 1.55-6.666.426-10.147l-.005-.015-.004-.014-4.563-13.052-.005-.012-.004-.014a4.117 4.117 0 0 0-1.99-2.236 4.041 4.041 0 0 0-5.062 1.15 4.178 4.178 0 0 0-2.934-.868 4.11 4.11 0 0 0-2.86 1.534 4.165 4.165 0 0 0-1.091-.646 4.087 4.087 0 0 0-4.164.656l-2.263-8.443V8.78c-.382-1.432-1.49-2.562-2.894-2.949a4.023 4.023 0 0 0-3.934 1.054C7.796 7.922 7.4 9.455 7.786 10.886l4.325 16.142c-.54.069-1.076.176-1.615.325l-.003.001-.012.003a4.803 4.803 0 0 0-3.043 2.572 4.967 4.967 0 0 0-.078 4.034 23.945 23.945 0 0 0 4.934 7.509 23.563 23.563 0 0 0 7.275 5.113c.221.112.404.353.479.63l.303 1.132a2.244 2.244 0 0 0-.468 2.08l1.303 4.864c.355 1.325 1.705 2.119 3.009 1.77l17.05-4.57c1.284-.343 2.04-1.701 1.684-3.026L41.626 44.6a2.246 2.246 0 0 0-1.446-1.567l-.002.002Zm-16.62 11.612-.004-.002-1.238-4.62 16.996-4.554 1.239 4.622-16.994 4.554ZM9.624 33.01a2.443 2.443 0 0 1 .03-1.984c.295-.62.84-1.08 1.496-1.264a8.76 8.76 0 0 1 1.614-.293l.48 1.789a.135.135 0 0 1 .004.038.492.492 0 0 1-.165.37 1.257 1.257 0 0 0-.171 1.754c.317.394.821.544 1.274.423a1.21 1.21 0 0 0 .457-.236 2.982 2.982 0 0 0 1.063-2.195c.01-.266-.02-.532-.089-.79l-5.459-20.372v-.001a1.66 1.66 0 0 1 .406-1.595 1.594 1.594 0 0 1 1.558-.417c.556.154.997.605 1.15 1.177v.001l3.208 11.972.007.022a1.343 1.343 0 0 0 .04.119l.028.062.025.052.032.056.03.05.035.05a1.657 1.657 0 0 0 .074.095l.042.047.041.04.046.041.046.037a1.308 1.308 0 0 0 .098.069l.05.03.055.03.051.024.058.024c.018.007.034.014.053.02l.06.018.054.014c.02.005.04.008.061.012l.058.01.06.005.061.004a1.231 1.231 0 0 0 .124-.004l.057-.006.066-.01c.007-.001.014 0 .022-.002l.038-.01c.013-.004.026-.005.04-.009l.022-.007a.888.888 0 0 0 .06-.02c.02-.006.04-.013.059-.021l.053-.023.06-.03c.015-.007.03-.017.045-.025l.06-.037.039-.028a.926.926 0 0 0 .057-.044l.034-.03c.019-.016.037-.032.055-.05l.03-.033a1.15 1.15 0 0 0 .049-.054l.029-.038.041-.056.028-.044.034-.057.025-.05c.009-.019.018-.037.026-.057l.022-.054.02-.057.017-.058.014-.059a1.193 1.193 0 0 0 .028-.243v-.057c0-.023-.002-.045-.003-.067l-.006-.058a2.104 2.104 0 0 0-.01-.067c-.002-.007-.002-.015-.003-.023-.122-.604.116-1.261.604-1.675a1.666 1.666 0 0 1 1.703-.273c.577.233.983.764 1.063 1.387.001.007.003.014.003.022l.013.067a2.104 2.104 0 0 0 .048.176c.006.02.015.04.023.06l.024.054c.008.019.017.037.027.055l.03.053c.009.017.02.034.03.05.012.017.023.035.036.051l.035.045c.013.017.026.033.04.048l.04.042a1.168 1.168 0 0 0 .089.082c.014.013.03.025.045.037a.783.783 0 0 0 .05.035l.047.033a.845.845 0 0 0 .054.03c.017.01.033.02.05.028.02.009.038.018.057.025l.053.023a1.258 1.258 0 0 0 .114.037 1.344 1.344 0 0 0 .177.034.827.827 0 0 0 .124.008h.088c.014 0 .027-.003.04-.004.013 0 .026 0 .039-.002a.348.348 0 0 0 .028-.005l.034-.005a1.43 1.43 0 0 0 .216-.057l.04-.017a1.236 1.236 0 0 0 .168-.085.789.789 0 0 0 .039-.026c.019-.013.038-.025.056-.04l.037-.029a.865.865 0 0 0 .085-.077 3.864 3.864 0 0 0 .079-.084l.039-.05.03-.041a.797.797 0 0 0 .061-.097l.03-.056.022-.046c.01-.02.018-.043.026-.065l.017-.042c.012-.034.022-.07.03-.106l.002-.005c.01-.038.016-.076.022-.116.002-.01.002-.022.003-.033a.977.977 0 0 0 .007-.208v-.016c-.06-.976.629-1.806 1.568-1.889.898-.08 1.724.569 1.902 1.464.01.068.02.137.033.205l.006.022.017.067.014.054.023.065.02.053a.978.978 0 0 0 .055.11 1.272 1.272 0 0 0 .098.151l.039.05.037.043.043.045a3 3 0 0 0 .043.04l.045.04a1.088 1.088 0 0 0 .148.103l.05.028a1.262 1.262 0 0 0 .165.074l.054.019.06.016.057.014.059.01.062.008.057.004.066.002.057-.001.066-.005c.009-.001.016 0 .023-.002l.066-.01c.003 0 .007 0 .011-.002h.004a1.274 1.274 0 0 0 .198-.056c.01-.003.019-.008.028-.012.026-.01.052-.02.076-.032l.04-.022c.02-.01.04-.02.058-.032l.044-.03c.016-.01.033-.021.049-.033.014-.01.028-.023.042-.034l.044-.036.039-.038.04-.04.035-.04.037-.044a.875.875 0 0 0 .03-.042.564.564 0 0 0 .06-.093l.03-.053.021-.045a.815.815 0 0 0 .026-.057l.018-.046a.862.862 0 0 0 .02-.06l.014-.048a.974.974 0 0 0 .024-.112l.009-.059a.679.679 0 0 0 .008-.114v-.058c0-.02 0-.04-.002-.06l-.004-.057-.002-.022a3.34 3.34 0 0 0-.025-.167 1.61 1.61 0 0 1 1.156-1.784 1.634 1.634 0 0 1 1.957.991l4.55 13.011c.926 2.877.81 5.899-.317 8.297-.509.924-.666 1.893-.44 2.735l.208.777-15.08 4.041-.21-.777c-.263-.987-.915-1.801-1.786-2.234l-.023-.01c-.008-.003-.014-.008-.021-.011C15.63 42.1 11.737 38.084 9.629 33.01l-.005.002Z"/></g><defs><clipPath id="a"><path fill="#fff" d="M.5 8.541 32.376 0l13.717 51.194-31.876 8.541z"/></clipPath></defs></svg>