
2.12k → 1.41k 66.25%
<svg xmlns="http://www.w3.org/2000/svg" fill="none" viewBox="0 0 23 98"><path fill="#008088" d="M12.554 7.056H11V1.127h10.122V3.01h-8.568v4.046Zm7.021 11.357V15.36H11v-1.883h8.575v-3.052h1.547v7.987h-1.547Zm-6.188 12.133c0 .103-.04.194-.119.273l-.805.742a4.069 4.069 0 0 1-1.169-1.519c-.27-.597-.406-1.316-.406-2.156 0-.751.128-1.428.385-2.03a4.474 4.474 0 0 1 1.071-1.533 4.73 4.73 0 0 1 1.638-.98 6.207 6.207 0 0 1 2.079-.336c.76 0 1.456.122 2.086.364.635.243 1.18.584 1.638 1.022.457.444.812.971 1.064 1.582.257.612.385 1.288.385 2.03 0 .738-.121 1.391-.364 1.96a4.67 4.67 0 0 1-.952 1.463l-.875-.63a.552.552 0 0 1-.147-.147.39.39 0 0 1-.063-.238c0-.07.019-.142.056-.217.042-.074.091-.156.147-.245.06-.088.126-.191.196-.308.07-.116.133-.252.189-.406.06-.154.11-.333.147-.539.042-.2.063-.434.063-.7 0-.452-.082-.868-.245-1.246a2.652 2.652 0 0 0-.7-.966 3.184 3.184 0 0 0-1.12-.63 4.66 4.66 0 0 0-1.505-.224c-.57 0-1.076.08-1.519.238a3.383 3.383 0 0 0-1.12.658c-.303.276-.537.6-.7.973a3.045 3.045 0 0 0-.238 1.204c0 .257.014.488.042.693.028.21.072.402.133.574.06.178.138.343.231.497.098.159.217.315.357.47a.574.574 0 0 1 .098.146.332.332 0 0 1 .042.161Zm5.894 11.895a.668.668 0 0 1-.217-.182.396.396 0 0 1-.063-.23c0-.099.035-.206.105-.323.075-.112.156-.247.245-.406a3.15 3.15 0 0 0 .238-.56c.075-.21.112-.46.112-.749 0-.261-.033-.49-.098-.686a1.436 1.436 0 0 0-.259-.497 1.06 1.06 0 0 0-.406-.294 1.296 1.296 0 0 0-.511-.098.905.905 0 0 0-.595.196 1.71 1.71 0 0 0-.406.532c-.112.22-.212.47-.301.75s-.184.566-.287.86a7.237 7.237 0 0 1-.35.861c-.13.28-.299.53-.504.75-.2.219-.448.394-.742.524-.294.136-.651.203-1.071.203a3.47 3.47 0 0 1-1.288-.238 2.94 2.94 0 0 1-1.043-.686 3.263 3.263 0 0 1-.7-1.099c-.168-.434-.252-.93-.252-1.49 0-.323.033-.64.098-.953.06-.312.15-.613.266-.903.117-.284.257-.553.42-.805.163-.252.345-.476.546-.672l.903.553a.554.554 0 0 1 .161.182c.047.075.07.154.07.238a.658.658 0 0 1-.147.378c-.093.136-.198.297-.315.483a4.03 4.03 0 0 0-.322.651c-.093.252-.14.553-.14.903 0 .537.126.952.378 1.246.257.294.623.441 1.099.441.266 0 .483-.067.651-.203.168-.13.308-.305.42-.525.117-.22.215-.469.294-.749.08-.28.166-.564.259-.854.093-.29.205-.574.336-.854.13-.28.301-.53.511-.749.21-.22.471-.396.784-.532.317-.13.707-.196 1.169-.196.369 0 .728.073 1.078.217.35.15.66.364.931.644.27.28.488.626.651 1.036.163.41.245.882.245 1.414a4.72 4.72 0 0 1-.28 1.652 3.73 3.73 0 0 1-.784 1.288l-.889-.469Zm-6.727 20.027H11V56.54h10.122v1.883h-8.568v4.046ZM11 69.902v-1.89h10.122v1.89H11Zm10.122 15.14L11 80.954v-1.701l10.122-4.088v1.512c0 .163-.04.296-.119.399a.727.727 0 0 1-.308.23l-6.174 2.388c-.2.08-.422.154-.665.224-.238.075-.488.144-.749.21.261.056.511.117.749.182.243.065.464.138.665.217l6.174 2.373c.107.037.205.11.294.217a.634.634 0 0 1 .133.406v1.519Zm-1.498 7.138h-2.807v3.541h-1.449V92.18h-2.863v4.493H11V90.29h10.122v6.383h-1.498V92.18Z"/><path fill="#EC6C00" d="M0 0h1v11H0zM0 15h1v4H0z"/></svg>